# xmcd CD database file
#
# Track frame offsets:
#	150
#	11131
#	20740
#	29923
#	42092
#	53974
#	66896
#	80129
#	92756
#	103962
#	116098
#	125960
#	136415
#	148924
#	162192
#	172590
#	185448
#	199960
#	210115
#	221099
#	231412
#	243013
#	253266
#	266434
#	278978
#	291859
#
# Disc length: 4064 seconds
#
# Revision: 2
# Processed by: cddbd v1.5.2PL0 Copyright (c) Steve Scherf et al.
# Submitted via: CDex 1.40Beta9
#
DISCID=990fde1a
DTITLE=Various Artist - Moaning, Groaning, Crying - A Galaxy Of Soul
DYEAR=1900
DGENRE=Northern Soul
TTITLE0=Rodger Collins - She's Looking Good
TTITLE1=Fuller Brothers, The - Morning Groaning And Crying
TTITLE2=Pat Hunt - Super Cool [You're Just Super Fool]
TTITLE3=Ozz and The Sperlings - Daddy Rollin' Stone
TTITLE4=Harold Andrews - You're A Winner
TTITLE5=Casanova II, The - Maybe They're Right
TTITLE6=Claude Huey - Drifting
TTITLE7=Right Kind, The - The Right Kind Of Guy
TTITLE8=Buddy Conner - Half Way Loving
TTITLE9=Sonny Rhodes - You Better Stop
TTITLE10=Little Ronnie and The Chromatics - I Was Wrong Pt. 1
TTITLE11=Ebonys, The - Don't Knock Me
TTITLE12=Casanova II, The - Love's Philosophy
TTITLE13=Lenny Williams - I Couldn't Find Anybody
TTITLE14=Rodger Collins - Hands Off My Girl
TTITLE15=Gail Anderson - I Can't Stop It
TTITLE16=Isaiah Smith - As Long As You're In Circulation
TTITLE17=Little Ronnie and The Chromatics - Get To Stepping [And Don't Come Back]
TTITLE18=Right Kind, The - I've Been Changed
TTITLE19=Charles Brown - Cry No More
TTITLE20=Casanova II, The - I Was A Fool
TTITLE21=Sonny Rhodes - I Was Kiddin'
TTITLE22=Gail Anderson - My Turn Now
TTITLE23=Rodger Collins - She's A Good Woman
TTITLE24=Claude Huey - Didn't We Have Some Good Times?
TTITLE25=Sugar Pie DeSanto - My Illusions
EXTD=
EXTT0=
EXTT1=
EXTT2=
EXTT3=
EXTT4=
EXTT5=
EXTT6=
EXTT7=
EXTT8=
EXTT9=
EXTT10=
EXTT11=
EXTT12=
EXTT13=
EXTT14=
EXTT15=
EXTT16=
EXTT17=
EXTT18=
EXTT19=
EXTT20=
EXTT21=
EXTT22=
EXTT23=
EXTT24=
EXTT25=
PLAYORDER=
